<svg width="181" height="41" viewBox="0 0 181 41" fill="none" xmlns="http://www.w3.org/2000/svg">
<g clip-path="url(#clip0_14_22)">
<path d="M161.607 32.1055H168.111C168.363 32.9254 169.221 33.7454 170.829 33.7454C173.006 33.7454 173.756 32.3932 173.756 30.3936L173.757 28.9695H173.612C172.538 30.221 171.11 31.1417 169.005 31.1417C164.859 31.1417 161.254 28.0776 161.255 22.0861C161.256 16.5981 164.219 12.3185 168.69 12.3185C171.264 12.3185 172.835 13.3542 173.873 14.9941H173.982L173.982 12.8939H180.413L180.411 29.5017C180.411 32.5658 179.337 34.9538 177.729 36.3851C176.048 37.8812 173.655 38.4854 170.936 38.4854C165.824 38.4854 162.256 36.3779 161.607 32.1055ZM174.046 21.7624C174.046 19.3745 172.907 17.4468 170.939 17.4468C169.042 17.4468 167.831 19.1587 167.831 21.7624C167.83 24.3302 169.049 26.1787 170.938 26.1787C172.899 26.1859 174.045 24.2942 174.046 21.7624ZM154.074 16.1665H154.182C155.574 13.4909 157.399 12.4983 159.72 12.4983C160.254 12.4983 160.614 12.5702 160.831 12.6781L160.83 18.5617H160.686C156.72 17.8496 154.398 19.7413 154.398 24.0497L154.397 32.0695H147.641L147.643 12.8939H154.075L154.074 16.1665ZM0.406738 5.19055H13.6301C16.132 5.19055 18.057 5.79473 19.4196 6.9024C20.9552 8.14673 21.777 10.0024 21.7767 12.2106C21.7765 14.7784 20.738 16.3823 18.5965 17.3821L18.5965 17.49C21.3867 18.4178 22.9943 20.9137 22.994 23.9418C22.9937 26.8261 21.8831 29.0774 20.066 30.4296C18.5302 31.5373 16.5329 32.0695 13.8868 32.0695H0.403951L0.406738 5.19055ZM12.9862 26.114C14.594 26.114 15.7694 25.1502 15.7696 23.3664C15.7698 21.5107 14.4865 20.6188 12.9507 20.6188H7.73059L7.73002 26.1068H12.9862L12.9862 26.114ZM12.3023 15.7062C13.7299 15.7062 14.7682 14.9222 14.7684 13.3542C14.7686 11.8222 13.6943 11.0741 12.2667 11.0741H7.73158L7.7311 15.7062H12.3023Z" fill="white"/>
<path d="M24.2072 5.19055H31.1361L31.1333 32.0695H24.2044L24.2072 5.19055ZM32.461 22.5105C32.4616 16.4542 36.3915 12.3544 42.4697 12.3544C48.5478 12.3544 52.4047 16.4542 52.4041 22.5105C52.4035 28.6098 48.5457 32.6665 42.4675 32.6665C36.3894 32.6737 32.4604 28.6098 32.461 22.5105ZM45.5401 22.5105C45.5404 19.1587 44.4664 17.0584 42.3971 17.0584C40.3278 17.0584 39.3253 19.1587 39.325 22.5105C39.3246 25.8982 40.3266 27.9985 42.3959 27.9985C44.4652 28.0057 45.5397 25.8982 45.5401 22.5105ZM53.19 22.5105C53.1906 16.4542 57.1206 12.3544 63.1987 12.3544C69.2768 12.3544 73.1337 16.4542 73.1331 22.5105C73.1325 28.6098 69.2747 32.6665 63.1966 32.6665C57.1184 32.6737 53.1894 28.6098 53.19 22.5105ZM66.2691 22.5105C66.2695 19.1587 65.1954 17.0584 63.1261 17.0584C61.0568 17.0584 60.0544 19.1587 60.054 22.5105C60.0537 25.8982 61.0556 27.9985 63.1249 27.9985C65.1942 28.0057 66.2688 25.8982 66.2691 22.5105ZM74.4536 12.8939H80.885L80.8847 15.7781H80.9928C82.2764 13.534 84.0286 12.3185 86.7829 12.3185C89.2127 12.3185 91.0367 13.5268 91.9666 15.6343H92.0747C93.6468 13.1025 95.6873 12.3185 98.045 12.3185C102.515 12.3185 104.44 15.5983 104.44 20.0146L104.438 32.0623H97.6825L97.6836 21.2302C97.6838 19.2666 97.0783 17.9863 95.3623 17.9863C93.6823 17.9863 92.8242 19.5543 92.824 21.6258L92.8229 32.0695H86.0598L86.0609 21.2302C86.0611 19.2666 85.4556 17.9863 83.7396 17.9863C82.0597 17.9863 81.2015 19.5543 81.2013 21.6258L81.2002 32.0695H74.4516L74.4536 12.8939ZM112.687 29.5737H112.615L112.615 32.0695H106.183L106.186 5.19055H112.942L112.941 14.8863H113.049C114.333 13.2104 116.049 12.3185 118.514 12.3185C123.338 12.3185 126.128 16.67 126.127 22.4385C126.127 28.9623 123.091 32.7025 118.087 32.7025C116.01 32.7096 113.869 31.7099 112.687 29.5737ZM119.263 22.3738C119.264 19.2738 118.125 17.2742 116.084 17.2742C114.015 17.2742 112.688 19.2738 112.688 22.3738C112.687 25.4379 114.007 27.4734 116.083 27.4734C118.152 27.4662 119.263 25.4738 119.263 22.3738ZM126.985 22.4457C126.986 16.4542 130.952 12.2897 136.706 12.2897C139.561 12.2897 141.781 13.1816 143.461 14.7856C145.674 16.9218 146.676 20.2735 146.604 24.2295H133.705C133.993 26.6175 135.132 27.833 137.173 27.833C138.355 27.833 139.386 27.3008 139.819 26.0133H146.322C145.183 30.3936 141.787 32.609 136.963 32.609C130.986 32.6018 126.985 28.5739 126.985 22.4457ZM133.705 20.4462H139.848C139.74 18.1301 138.457 16.9146 136.849 16.9146C134.989 16.9146 133.951 18.238 133.705 20.4462Z" fill="white"/>
</g>
<defs>
<clipPath id="clip0_14_22">
<rect width="180" height="40" fill="white" transform="matrix(1 0 -0.000103703 1 0.407227 0.190552)"/>
</clipPath>
</defs>
</svg>
