<svg width="166" height="41" viewBox="0 0 166 41" fill="none" xmlns="http://www.w3.org/2000/svg">
<g clip-path="url(#clip0_14_24)">
<path d="M27.5762 28.8055L27.5781 10.7252C27.5782 9.78463 27.7866 9.07919 28.2295 8.60889C28.6463 8.13859 29.2193 7.90344 29.8966 7.90344C30.5999 7.90344 31.1729 8.13859 31.5896 8.60889C32.0324 9.07919 32.2407 9.78463 32.2406 10.7252L32.2387 28.8055C32.2386 29.7461 32.0301 30.4777 31.5873 30.948C31.1444 31.4183 30.5974 31.6534 29.8941 31.6534C29.2169 31.6534 28.6699 31.4183 28.2532 30.948C27.8104 30.4516 27.5761 29.7461 27.5762 28.8055Z" fill="white"/>
<path d="M153.62 31.6273C147.108 31.6273 141.795 26.2973 141.796 19.7654C141.796 13.2335 147.11 7.90344 153.622 7.90344C160.134 7.90344 165.447 13.2335 165.447 19.7654C165.446 26.3234 160.158 31.6273 153.62 31.6273ZM153.622 12.7109C149.741 12.7109 146.589 15.8724 146.588 19.7654C146.588 23.6584 149.739 26.8198 153.62 26.8198C157.501 26.8198 160.654 23.6584 160.654 19.7654C160.654 15.8985 157.503 12.7109 153.622 12.7109Z" fill="white"/>
<path d="M100.561 31.6273C94.0491 31.6273 88.736 26.2973 88.7367 19.7654C88.7373 13.2335 94.0516 7.90344 100.563 7.90344C107.075 7.90344 112.389 13.2335 112.388 19.7654C112.387 26.3234 107.073 31.6273 100.561 31.6273ZM100.563 12.7109C96.6819 12.7109 93.5298 15.8724 93.5294 19.7654C93.529 23.6584 96.6804 26.8198 100.562 26.8198C104.443 26.8198 107.595 23.6584 107.595 19.7654C107.595 15.8985 104.444 12.7109 100.563 12.7109Z" fill="white"/>
<path d="M138.019 19.7654C138.019 17.1526 137.16 14.7227 135.727 12.7632C133.644 9.91527 130.31 8.03408 126.533 7.90344C126.403 7.90344 126.298 7.90344 126.168 7.90344H120.229C119.213 7.90344 118.484 8.13859 118.041 8.60889C117.598 9.07919 117.364 9.81076 117.364 10.8559L117.362 28.701C117.362 29.7461 117.596 30.4777 118.039 30.948C118.482 31.4183 119.237 31.6534 120.227 31.6534H126.166C126.296 31.6534 126.4 31.6534 126.53 31.6534C130.307 31.5489 133.616 29.6677 135.726 26.7937C137.159 24.808 138.018 22.3781 138.019 19.7654ZM127.026 26.7676C126.453 26.7937 125.828 26.8198 125.176 26.8198H122.077L122.078 12.7109H125.178C125.829 12.7109 126.454 12.7109 127.027 12.7632C129.085 12.9983 130.856 14.1479 131.976 15.7679C132.757 16.8913 133.226 18.2761 133.226 19.7654C133.226 21.2547 132.757 22.6133 131.975 23.7368C130.855 25.4089 129.084 26.5324 127.026 26.7676Z" fill="white"/>
<path d="M82.0436 8.00789C81.1841 7.74661 80.2463 8.08627 79.7514 8.84397L72.6132 19.7392L65.4773 8.84397C64.9825 8.08627 64.0448 7.74661 63.1852 8.00789C62.3256 8.26917 61.7265 9.10525 61.7264 10.0197L61.7244 29.3803C61.7242 30.5299 62.6358 31.4966 63.7819 31.4966C64.9019 31.4966 65.8397 30.556 65.8399 29.3803L65.8412 16.9174L70.8936 24.6512C70.8936 24.6512 70.8936 24.6512 70.8936 24.6773C70.8936 24.6773 70.8936 24.7034 70.9196 24.7034C70.9456 24.7557 70.9717 24.8079 71.0238 24.8341C71.0498 24.8602 71.0498 24.8602 71.0759 24.8863C71.1019 24.9125 71.128 24.9647 71.154 24.9908C71.18 25.017 71.2061 25.0431 71.2321 25.0692C71.2582 25.0953 71.2842 25.0953 71.2842 25.1215C71.3363 25.1476 71.3624 25.1737 71.4145 25.226L71.4405 25.2521C71.4926 25.2782 71.5447 25.3044 71.5707 25.3305C71.5968 25.3305 71.5968 25.3566 71.5968 25.3566C71.6228 25.3827 71.6749 25.3827 71.701 25.4089C71.9093 25.5134 72.1177 25.5656 72.3521 25.5918C72.4042 25.5918 72.4303 25.5918 72.4824 25.5918C72.5084 25.5918 72.5345 25.5918 72.5605 25.5918C72.5866 25.5918 72.6126 25.5918 72.6387 25.5918C72.6908 25.5918 72.7168 25.5918 72.7689 25.5918C72.9773 25.5656 73.2117 25.5134 73.4201 25.4089C73.4461 25.3827 73.4982 25.3827 73.5243 25.3566L73.5503 25.3305C73.6024 25.3044 73.6545 25.2782 73.6806 25.2521C73.7066 25.2521 73.7066 25.226 73.7066 25.226C73.7587 25.1999 73.7848 25.1737 73.8369 25.1215C73.8629 25.0953 73.889 25.0953 73.889 25.0692C73.915 25.0431 73.9411 25.017 73.9671 24.9908C73.9932 24.9647 74.0192 24.9386 74.0453 24.8863C74.0713 24.8602 74.0713 24.8602 74.0974 24.8341C74.1234 24.7818 74.1755 24.7557 74.2016 24.7034L74.2276 24.6773C74.2276 24.6773 74.2276 24.6773 74.2276 24.6512L79.2817 16.9174L79.2804 29.3803C79.2803 30.5299 80.1918 31.4966 81.3379 31.4966C82.4579 31.4966 83.3957 30.556 83.3959 29.3803L83.3979 10.0197C83.5022 9.10525 82.9032 8.26917 82.0436 8.00789Z" fill="white"/>
<path d="M54.7435 30.9219H39.4015C38.594 30.9219 37.7085 30.4254 37.3699 29.6416C37.0314 28.8578 36.9794 27.7865 37.6828 26.9243L50.2131 12.319H39.8462C38.7262 12.319 37.7886 11.3262 37.7887 10.1243C37.7888 8.92242 38.7006 8.16472 39.8467 8.16472H53.8081C54.6156 8.16472 55.4491 8.29536 56.1784 9.10531C56.8555 9.83688 56.8033 11.4307 56.0738 12.3713L43.9603 26.5324H54.7439C55.89 26.5324 56.6974 27.5253 56.6973 28.7271C56.6971 29.929 55.8896 30.9219 54.7435 30.9219Z" fill="white"/>
<path d="M12.312 31.6273C8.89977 31.6273 5.8263 30.2687 3.61251 27.8127C1.68522 25.6702 0.565469 22.8223 0.565762 20.0005C0.566675 11.1955 7.86032 7.90344 12.4707 7.90344C17.003 7.90344 20.3108 10.1243 20.4671 10.2288C21.4829 10.9342 21.7692 12.319 21.0659 13.3641C20.3885 14.4092 19.008 14.6705 17.9922 13.9912C17.9401 13.965 15.5699 12.4235 12.4703 12.4235C9.57899 12.4235 5.59352 14.3308 5.59293 20.0005C5.5926 23.2142 7.98858 27.0288 12.3646 27.0288C14.8391 27.0288 16.5583 26.3757 17.5742 25.7225L17.5746 22.3781H14.1884C12.9641 22.3781 11.9744 21.3592 11.9746 20.1312C11.9747 18.877 12.9646 17.8842 14.1888 17.8842H19.8412C21.0654 17.8842 22.0551 18.9032 22.055 20.1312L22.0543 26.846C22.0542 27.4469 21.8197 28.0478 21.3769 28.4659C19.892 29.929 16.6098 31.6273 12.312 31.6273Z" fill="white"/>
</g>
<defs>
<clipPath id="clip0_14_24">
<rect width="165" height="40" fill="white" transform="matrix(1 0 -0.000103703 1 0.56781 0.403442)"/>
</clipPath>
</defs>
</svg>
