<?xml version="1.0" encoding="UTF-8"?>
<svg version="1.1" xmlns="http://www.w3.org/2000/svg" width="512" height="512">
<path d="M0 0 C9.90291994 7.05341189 16.70575351 16.36459835 19.65977478 28.20622253 C20.25485722 31.859766 20.30194835 35.46603216 20.33032227 39.1574707 C20.34022186 39.95799362 20.35012146 40.75851654 20.36032104 41.58329773 C20.39180277 44.21826258 20.41664055 46.85324544 20.44140625 49.48828125 C20.4619873 51.31959999 20.48298407 53.1509141 20.50437927 54.98222351 C20.55948111 59.79408004 20.60894267 64.60597859 20.65722656 69.41790771 C20.70752855 74.33137741 20.76316916 79.24478634 20.81835938 84.15820312 C20.92579548 93.79291679 21.02727257 103.4276833 21.125 113.0625 C22.3845752 113.32877197 23.64415039 113.59504395 24.94189453 113.86938477 C29.68379393 114.87716339 34.41990185 115.91023984 39.15478516 116.95043945 C41.19173686 117.39436575 43.23013309 117.8317233 45.27001953 118.26196289 C65.79650954 122.60003552 82.07711028 128.59286119 95.0625 146 C104.0591832 159.84611488 107.04425738 175.19908028 104.61328125 191.4921875 C99.82742208 212.83011569 90.81942918 233.67306602 82.86535645 253.99072266 C82.16747582 255.77826803 81.47510288 257.56797416 80.78845215 259.35986328 C79.8178043 261.88517586 78.82429616 264.40028359 77.82421875 266.9140625 C77.39803505 268.04021469 77.39803505 268.04021469 76.96324158 269.18911743 C74.66177968 274.85895649 71.7196361 278.26518195 66.125 281.0625 C64.07349578 281.16519605 62.01859738 281.2020256 59.96453857 281.20967102 C58.64943802 281.21682632 57.33433746 281.22398163 55.97938538 281.23135376 C54.51327538 281.23419418 53.04716513 281.23690589 51.58105469 281.23950195 C50.04371486 281.24576546 48.50637655 281.25241216 46.96903992 281.25941467 C42.7850099 281.27683574 38.60099132 281.28737962 34.41693401 281.2956202 C31.80338784 281.30076842 29.18984523 281.30684426 26.57630157 281.31313133 C18.40067135 281.33218721 10.22505017 281.34641704 2.049402 281.3547433 C-7.39070837 281.36451572 -16.83058426 281.39083361 -26.270612 281.43124419 C-33.56495528 281.46139882 -40.85923133 281.47621158 -48.15363574 281.47952431 C-52.51119299 281.48187571 -56.86849986 281.4908475 -61.2259903 281.51598549 C-65.32675369 281.53925967 -69.42710174 281.54350223 -73.52791405 281.53322411 C-75.03153807 281.53272846 -76.53518249 281.53905753 -78.03874397 281.55278015 C-80.0951938 281.57049584 -82.15015252 281.56339679 -84.206604 281.55024719 C-85.93106939 281.55382972 -85.93106939 281.55382972 -87.69037247 281.55748463 C-92.86501473 280.75319328 -95.94464929 278.27272651 -99.08569336 274.18676758 C-100.8000868 271.19330422 -102.2081883 268.26927515 -103.50390625 265.07421875 C-104.21256836 263.32685425 -104.21256836 263.32685425 -104.93554688 261.54418945 C-105.43730841 260.2798998 -105.9379287 259.01515671 -106.4375 257.75 C-106.69523193 257.10155121 -106.95296387 256.45310242 -107.21850586 255.78500366 C-136.85115346 180.99486689 -136.85115346 180.99486689 -123.5625 147.6875 C-119.05482471 137.78934061 -113.50576855 129.82460708 -105.875 122.0625 C-104.95267578 121.12083984 -104.95267578 121.12083984 -104.01171875 120.16015625 C-96.52497414 113.09023254 -87.35659025 108.12601282 -77.62792969 104.9440918 C-76.54985046 104.58993698 -75.47177124 104.23578217 -74.36102295 103.87089539 C-73.54063538 103.60412491 -72.7202478 103.33735443 -71.875 103.0625 C-71.87135437 102.18934647 -71.86770874 101.31619293 -71.86395264 100.4165802 C-71.82588035 92.13521872 -71.76881219 83.85424339 -71.69109726 75.5731554 C-71.65180686 71.31706652 -71.61952902 67.06117882 -71.60400391 62.80493164 C-71.58871446 58.68735652 -71.55405599 54.57033522 -71.50669098 50.45300865 C-71.4920025 48.89242083 -71.4839663 47.33175389 -71.48311615 45.77109718 C-71.46651116 30.55479392 -68.79089995 18.01996573 -58.5 6.375 C-41.56872104 -8.54065051 -19.75898565 -12.49465269 0 0 Z M-33.875 26.0625 C-37.49447885 29.35131042 -39.75674683 32.68727349 -40.00528526 37.67940235 C-40.00784136 38.73812392 -40.01039745 39.79684549 -40.01303101 40.88764954 C-40.01848434 42.10315491 -40.02393768 43.31866028 -40.02955627 44.57099915 C-40.03067604 45.92013544 -40.03172657 47.2692718 -40.03271484 48.6184082 C-40.03738355 50.03767046 -40.0425272 51.45693123 -40.04811096 52.87619019 C-40.05939024 55.93402783 -40.06782526 58.99185574 -40.07423019 62.04970741 C-40.08491178 66.88654331 -40.10515721 71.72330929 -40.12734985 76.56010437 C-40.18926828 90.3146952 -40.24327993 104.06928198 -40.27636719 117.82397461 C-40.29471852 125.41945128 -40.32366058 133.01481091 -40.3643719 140.61020154 C-40.3854328 144.62896635 -40.40089786 148.64758372 -40.40317917 152.66640663 C-40.40532829 156.44791285 -40.4212243 160.22911207 -40.44756889 164.01052475 C-40.45475323 165.39640166 -40.45686704 166.78231581 -40.45346642 168.16820717 C-40.44955794 170.06429282 -40.46581785 171.96038772 -40.48300171 173.85639954 C-40.48631186 174.91625218 -40.489622 175.97610483 -40.49303246 177.06807423 C-41.10694927 181.88086099 -42.87984372 185.11710154 -46.375 188.4375 C-51.28424556 190.71679258 -55.54966573 190.83911125 -60.875 190.0625 C-65.96012858 187.70154745 -67.84689919 185.20707374 -69.875 180.0625 C-70.32753162 176.6594288 -70.36319016 173.28139688 -70.38671875 169.8515625 C-70.40466995 168.88342621 -70.42262115 167.91528992 -70.44111633 166.91781616 C-70.49507795 163.84108773 -70.52906989 160.7645132 -70.5625 157.6875 C-70.59568553 155.59503074 -70.63017633 153.50258174 -70.66601562 151.41015625 C-70.75079646 146.29438211 -70.81767528 141.17865249 -70.875 136.0625 C-72.15672488 136.68926603 -73.43685573 137.31929251 -74.71630859 137.95068359 C-75.4293515 138.30117767 -76.14239441 138.65167175 -76.87704468 139.01278687 C-84.86175328 143.20790244 -89.91789781 150.17374323 -93.875 158.0625 C-94.20371094 158.69671875 -94.53242188 159.3309375 -94.87109375 159.984375 C-104.46071991 181.45779626 -91.46867085 209.83689714 -83.875 230.0625 C-81.27481709 236.75566786 -78.58436842 243.41290168 -75.875 250.0625 C-63.87508115 250.23518068 -51.87508207 250.401563 -39.875 250.5625 C-38.98966331 250.57437725 -38.10432663 250.5862545 -37.19216156 250.59849167 C-8.08461396 250.98696864 21.01450564 251.20829921 50.125 251.0625 C56.60435581 234.87481257 63.02432759 218.67730791 68.875 202.25 C69.29249512 201.07791992 69.70999023 199.90583984 70.14013672 198.69824219 C74.03775974 187.6453796 76.02065859 178.9684278 71.44140625 167.671875 C67.32327902 159.50894031 61.43397437 155.45520449 53.125 152.0625 C48.97643575 150.83064415 44.78716416 149.94546378 40.546875 149.08984375 C39.37666809 148.84005264 38.20646118 148.59026154 37.00079346 148.332901 C33.2947944 147.54229055 29.58552187 146.76908385 25.875 146 C20.97067987 144.9822838 16.07043325 143.94739742 11.171875 142.90234375 C10.05302917 142.67618881 8.93418335 142.45003387 7.78143311 142.21702576 C2.17769194 141.02074959 -2.50778979 140.0044634 -6.875 136.0625 C-10.15459621 130.91445606 -10.30208547 126.65703373 -10.25976562 120.75585938 C-10.2651384 119.83803177 -10.27051117 118.92020416 -10.27604675 117.9745636 C-10.28580289 115.98902995 -10.28877547 114.00345378 -10.28569031 112.01789856 C-10.28120327 108.87350182 -10.29523743 105.72966516 -10.31408691 102.58532715 C-10.35706182 94.77796199 -10.36811418 86.97060964 -10.38031006 79.16314697 C-10.39184388 72.56045151 -10.41542104 65.95801165 -10.45500183 59.35542297 C-10.4685646 56.26104972 -10.4644028 53.16702312 -10.45959473 50.07263184 C-10.46893632 48.17146362 -10.47910539 46.27029922 -10.49023438 44.36914062 C-10.48408615 43.51181839 -10.47793793 42.65449615 -10.47160339 41.77119446 C-10.53470493 35.62524452 -11.62971743 31.30778257 -16.125 26.8125 C-22.46983613 22.77487701 -27.45874508 22.18853477 -33.875 26.0625 Z " fill="#000000" transform="translate(379.875,230.9375)"/>
<path d="M0 0 C0.71209712 -0.00367669 1.42419424 -0.00735338 2.15787005 -0.01114148 C4.55607991 -0.02219902 6.95424647 -0.02602565 9.35247803 -0.02983093 C11.06715534 -0.03609404 12.78183129 -0.04274071 14.49650574 -0.04974365 C19.16399196 -0.067168 23.83146792 -0.07770941 28.49897861 -0.08594918 C31.41404207 -0.09109651 34.32910232 -0.09717237 37.24416351 -0.10346031 C46.36165711 -0.12251675 55.47914258 -0.13674669 64.59665227 -0.14507228 C75.12684146 -0.15484611 85.65682052 -0.18116753 96.18693566 -0.22157317 C104.32203611 -0.25171917 112.45707628 -0.26653973 120.59223151 -0.26985329 C125.45279996 -0.2722056 130.31314404 -0.28118931 135.17365265 -0.30631447 C139.74717032 -0.32957358 144.32031557 -0.33383716 148.89387703 -0.32355309 C150.57165578 -0.32305708 152.24945273 -0.3293966 153.92717552 -0.34310913 C156.22004471 -0.36079935 158.5115732 -0.35373728 160.80444336 -0.34057617 C162.72801603 -0.3441587 162.72801603 -0.3441587 164.69044876 -0.34781361 C169.6039499 0.35394342 172.72226657 2.51546623 175.96868896 6.20967102 C178.37291197 10.13235067 178.28598606 13.49621979 178.29663086 17.99734497 C178.29960198 18.69804586 178.3025731 19.39874674 178.30563426 20.12068099 C178.31432269 22.47433097 178.31582963 24.82793009 178.31732178 27.18159485 C178.32194985 28.86686309 178.32697449 30.55213028 178.33236694 32.23739624 C178.34549397 36.82011953 178.35193649 41.40282817 178.3563776 45.98556733 C178.35930783 48.84820583 178.36341254 51.71084031 178.36788177 54.57347679 C178.38155748 63.5286529 178.39122379 72.48381985 178.39508367 81.43900567 C178.3995648 91.77897586 178.41711498 102.11881388 178.44608426 112.45874387 C178.46769531 120.44949293 178.47778764 128.44020479 178.47912478 136.43098277 C178.48017322 141.20430275 178.48608929 145.9774985 178.5039444 150.75078773 C178.5204151 155.24137686 178.52258546 159.73174824 178.51380539 164.2223568 C178.51303448 165.86949115 178.51738487 167.51663716 178.52726364 169.16374207 C178.53997152 171.41476933 178.53411321 173.66502405 178.52368164 175.91604614 C178.5251482 177.17500607 178.52661476 178.43396601 178.52812576 179.73107624 C177.97493349 184.81193203 176.37710859 188.04536551 172.59368896 191.45967102 C168.54987077 194.25923746 166.25075525 194.27786574 161.31237793 194.29434204 C160.60028081 194.29801873 159.88818369 194.30169542 159.15450788 194.30548352 C156.75629802 194.31654106 154.35813146 194.3203677 151.9598999 194.32417297 C150.24522259 194.33043608 148.53054664 194.33708275 146.81587219 194.34408569 C142.14838597 194.36151004 137.48091001 194.37205145 132.81339931 194.38029122 C129.89833586 194.38543855 126.98327561 194.39151441 124.06821442 194.39780235 C114.95072082 194.41685879 105.83323535 194.43108873 96.71572566 194.43941432 C86.18553647 194.44918815 75.6555574 194.47550958 65.12544227 194.51591522 C56.99034182 194.54606121 48.85530165 194.56088177 40.72014642 194.56419533 C35.85957797 194.56654764 30.99923389 194.57553135 26.13872528 194.60065651 C21.56520761 194.62391562 16.99206236 194.6281792 12.4185009 194.61789513 C10.74072215 194.61739912 9.0629252 194.62373864 7.38520241 194.63745117 C5.09233322 194.6551414 2.80080473 194.64807932 0.50793457 194.63491821 C-0.77444721 194.63730657 -2.05682899 194.63969492 -3.37807083 194.64215565 C-8.29157197 193.94039862 -11.40988864 191.77887581 -14.65631104 188.08467102 C-17.06053404 184.16199137 -16.97360814 180.79812225 -16.98425293 176.29699707 C-16.98722405 175.59629618 -16.99019517 174.8955953 -16.99325633 174.17366105 C-17.00194476 171.82001107 -17.0034517 169.46641195 -17.00494385 167.11274719 C-17.00957192 165.42747895 -17.01459656 163.74221177 -17.01998901 162.0569458 C-17.03311604 157.47422251 -17.03955856 152.89151387 -17.04399967 148.30877471 C-17.0469299 145.44613621 -17.05103461 142.58350173 -17.05550385 139.72086525 C-17.06917955 130.76568914 -17.07884586 121.8105222 -17.08270574 112.85533637 C-17.08718687 102.51536618 -17.10473705 92.17552816 -17.13370633 81.83559817 C-17.15531738 73.84484911 -17.16540971 65.85413725 -17.16674685 57.86335927 C-17.16779529 53.09003929 -17.17371136 48.31684354 -17.19156647 43.54355431 C-17.20803717 39.05296518 -17.21020754 34.5625938 -17.20142746 30.07198524 C-17.20065655 28.42485089 -17.20500694 26.77770488 -17.21488571 25.13059998 C-17.22759359 22.87957271 -17.22173528 20.62931799 -17.21130371 18.3782959 C-17.21277027 17.11933597 -17.21423683 15.86037603 -17.21574783 14.5632658 C-16.66255556 9.48241001 -15.06473066 6.24897653 -11.28131104 2.83467102 C-7.23749284 0.03510458 -4.93837732 0.0164763 0 0 Z M14.15618896 30.14717102 C14.15618896 74.36717102 14.15618896 118.58717102 14.15618896 164.14717102 C58.04618896 164.14717102 101.93618896 164.14717102 147.15618896 164.14717102 C147.15618896 119.92717102 147.15618896 75.70717102 147.15618896 30.14717102 C103.26618896 30.14717102 59.37618896 30.14717102 14.15618896 30.14717102 Z " fill="#000000" transform="translate(43.84381103515625,235.8528289794922)"/>
<path d="M0 0 C0.71209712 -0.00367669 1.42419424 -0.00735338 2.15787005 -0.01114148 C4.55607991 -0.02219902 6.95424647 -0.02602565 9.35247803 -0.02983093 C11.06715534 -0.03609404 12.78183129 -0.04274071 14.49650574 -0.04974365 C19.16399196 -0.067168 23.83146792 -0.07770941 28.49897861 -0.08594918 C31.41404207 -0.09109651 34.32910232 -0.09717237 37.24416351 -0.10346031 C46.36165711 -0.12251675 55.47914258 -0.13674669 64.59665227 -0.14507228 C75.12684146 -0.15484611 85.65682052 -0.18116753 96.18693566 -0.22157317 C104.32203611 -0.25171917 112.45707628 -0.26653973 120.59223151 -0.26985329 C125.45279996 -0.2722056 130.31314404 -0.28118931 135.17365265 -0.30631447 C139.74717032 -0.32957358 144.32031557 -0.33383716 148.89387703 -0.32355309 C150.57165578 -0.32305708 152.24945273 -0.3293966 153.92717552 -0.34310913 C156.22004471 -0.36079935 158.5115732 -0.35373728 160.80444336 -0.34057617 C162.72801603 -0.3441587 162.72801603 -0.3441587 164.69044876 -0.34781361 C169.6039499 0.35394342 172.72226657 2.51546623 175.96868896 6.20967102 C178.37291197 10.13235067 178.28598606 13.49621979 178.29663086 17.99734497 C178.29960198 18.69804586 178.3025731 19.39874674 178.30563426 20.12068099 C178.31432269 22.47433097 178.31582963 24.82793009 178.31732178 27.18159485 C178.32194985 28.86686309 178.32697449 30.55213028 178.33236694 32.23739624 C178.34549397 36.82011953 178.35193649 41.40282817 178.3563776 45.98556733 C178.35930783 48.84820583 178.36341254 51.71084031 178.36788177 54.57347679 C178.38155748 63.5286529 178.39122379 72.48381985 178.39508367 81.43900567 C178.3995648 91.77897586 178.41711498 102.11881388 178.44608426 112.45874387 C178.46769531 120.44949293 178.47778764 128.44020479 178.47912478 136.43098277 C178.48017322 141.20430275 178.48608929 145.9774985 178.5039444 150.75078773 C178.5204151 155.24137686 178.52258546 159.73174824 178.51380539 164.2223568 C178.51303448 165.86949115 178.51738487 167.51663716 178.52726364 169.16374207 C178.53997152 171.41476933 178.53411321 173.66502405 178.52368164 175.91604614 C178.5251482 177.17500607 178.52661476 178.43396601 178.52812576 179.73107624 C177.97493349 184.81193203 176.37710859 188.04536551 172.59368896 191.45967102 C168.54987077 194.25923746 166.25075525 194.27786574 161.31237793 194.29434204 C160.60028081 194.29801873 159.88818369 194.30169542 159.15450788 194.30548352 C156.75629802 194.31654106 154.35813146 194.3203677 151.9598999 194.32417297 C150.24522259 194.33043608 148.53054664 194.33708275 146.81587219 194.34408569 C142.14838597 194.36151004 137.48091001 194.37205145 132.81339931 194.38029122 C129.89833586 194.38543855 126.98327561 194.39151441 124.06821442 194.39780235 C114.95072082 194.41685879 105.83323535 194.43108873 96.71572566 194.43941432 C86.18553647 194.44918815 75.6555574 194.47550958 65.12544227 194.51591522 C56.99034182 194.54606121 48.85530165 194.56088177 40.72014642 194.56419533 C35.85957797 194.56654764 30.99923389 194.57553135 26.13872528 194.60065651 C21.56520761 194.62391562 16.99206236 194.6281792 12.4185009 194.61789513 C10.74072215 194.61739912 9.0629252 194.62373864 7.38520241 194.63745117 C5.09233322 194.6551414 2.80080473 194.64807932 0.50793457 194.63491821 C-0.77444721 194.63730657 -2.05682899 194.63969492 -3.37807083 194.64215565 C-8.29157197 193.94039862 -11.40988864 191.77887581 -14.65631104 188.08467102 C-17.06053404 184.16199137 -16.97360814 180.79812225 -16.98425293 176.29699707 C-16.98722405 175.59629618 -16.99019517 174.8955953 -16.99325633 174.17366105 C-17.00194476 171.82001107 -17.0034517 169.46641195 -17.00494385 167.11274719 C-17.00957192 165.42747895 -17.01459656 163.74221177 -17.01998901 162.0569458 C-17.03311604 157.47422251 -17.03955856 152.89151387 -17.04399967 148.30877471 C-17.0469299 145.44613621 -17.05103461 142.58350173 -17.05550385 139.72086525 C-17.06917955 130.76568914 -17.07884586 121.8105222 -17.08270574 112.85533637 C-17.08718687 102.51536618 -17.10473705 92.17552816 -17.13370633 81.83559817 C-17.15531738 73.84484911 -17.16540971 65.85413725 -17.16674685 57.86335927 C-17.16779529 53.09003929 -17.17371136 48.31684354 -17.19156647 43.54355431 C-17.20803717 39.05296518 -17.21020754 34.5625938 -17.20142746 30.07198524 C-17.20065655 28.42485089 -17.20500694 26.77770488 -17.21488571 25.13059998 C-17.22759359 22.87957271 -17.22173528 20.62931799 -17.21130371 18.3782959 C-17.21277027 17.11933597 -17.21423683 15.86037603 -17.21574783 14.5632658 C-16.66255556 9.48241001 -15.06473066 6.24897653 -11.28131104 2.83467102 C-7.23749284 0.03510458 -4.93837732 0.0164763 0 0 Z M14.15618896 30.14717102 C14.15618896 74.36717102 14.15618896 118.58717102 14.15618896 164.14717102 C58.04618896 164.14717102 101.93618896 164.14717102 147.15618896 164.14717102 C147.15618896 119.92717102 147.15618896 75.70717102 147.15618896 30.14717102 C103.26618896 30.14717102 59.37618896 30.14717102 14.15618896 30.14717102 Z " fill="#000000" transform="translate(279.84381103515625,-0.1471710205078125)"/>
<path d="M0 0 C0.71209712 -0.00367669 1.42419424 -0.00735338 2.15787005 -0.01114148 C4.55607991 -0.02219902 6.95424647 -0.02602565 9.35247803 -0.02983093 C11.06715534 -0.03609404 12.78183129 -0.04274071 14.49650574 -0.04974365 C19.16399196 -0.067168 23.83146792 -0.07770941 28.49897861 -0.08594918 C31.41404207 -0.09109651 34.32910232 -0.09717237 37.24416351 -0.10346031 C46.36165711 -0.12251675 55.47914258 -0.13674669 64.59665227 -0.14507228 C75.12684146 -0.15484611 85.65682052 -0.18116753 96.18693566 -0.22157317 C104.32203611 -0.25171917 112.45707628 -0.26653973 120.59223151 -0.26985329 C125.45279996 -0.2722056 130.31314404 -0.28118931 135.17365265 -0.30631447 C139.74717032 -0.32957358 144.32031557 -0.33383716 148.89387703 -0.32355309 C150.57165578 -0.32305708 152.24945273 -0.3293966 153.92717552 -0.34310913 C156.22004471 -0.36079935 158.5115732 -0.35373728 160.80444336 -0.34057617 C162.72801603 -0.3441587 162.72801603 -0.3441587 164.69044876 -0.34781361 C169.6039499 0.35394342 172.72226657 2.51546623 175.96868896 6.20967102 C178.37291197 10.13235067 178.28598606 13.49621979 178.29663086 17.99734497 C178.29960198 18.69804586 178.3025731 19.39874674 178.30563426 20.12068099 C178.31432269 22.47433097 178.31582963 24.82793009 178.31732178 27.18159485 C178.32194985 28.86686309 178.32697449 30.55213028 178.33236694 32.23739624 C178.34549397 36.82011953 178.35193649 41.40282817 178.3563776 45.98556733 C178.35930783 48.84820583 178.36341254 51.71084031 178.36788177 54.57347679 C178.38155748 63.5286529 178.39122379 72.48381985 178.39508367 81.43900567 C178.3995648 91.77897586 178.41711498 102.11881388 178.44608426 112.45874387 C178.46769531 120.44949293 178.47778764 128.44020479 178.47912478 136.43098277 C178.48017322 141.20430275 178.48608929 145.9774985 178.5039444 150.75078773 C178.5204151 155.24137686 178.52258546 159.73174824 178.51380539 164.2223568 C178.51303448 165.86949115 178.51738487 167.51663716 178.52726364 169.16374207 C178.53997152 171.41476933 178.53411321 173.66502405 178.52368164 175.91604614 C178.5251482 177.17500607 178.52661476 178.43396601 178.52812576 179.73107624 C177.97493349 184.81193203 176.37710859 188.04536551 172.59368896 191.45967102 C168.54987077 194.25923746 166.25075525 194.27786574 161.31237793 194.29434204 C160.60028081 194.29801873 159.88818369 194.30169542 159.15450788 194.30548352 C156.75629802 194.31654106 154.35813146 194.3203677 151.9598999 194.32417297 C150.24522259 194.33043608 148.53054664 194.33708275 146.81587219 194.34408569 C142.14838597 194.36151004 137.48091001 194.37205145 132.81339931 194.38029122 C129.89833586 194.38543855 126.98327561 194.39151441 124.06821442 194.39780235 C114.95072082 194.41685879 105.83323535 194.43108873 96.71572566 194.43941432 C86.18553647 194.44918815 75.6555574 194.47550958 65.12544227 194.51591522 C56.99034182 194.54606121 48.85530165 194.56088177 40.72014642 194.56419533 C35.85957797 194.56654764 30.99923389 194.57553135 26.13872528 194.60065651 C21.56520761 194.62391562 16.99206236 194.6281792 12.4185009 194.61789513 C10.74072215 194.61739912 9.0629252 194.62373864 7.38520241 194.63745117 C5.09233322 194.6551414 2.80080473 194.64807932 0.50793457 194.63491821 C-0.77444721 194.63730657 -2.05682899 194.63969492 -3.37807083 194.64215565 C-8.29157197 193.94039862 -11.40988864 191.77887581 -14.65631104 188.08467102 C-17.06053404 184.16199137 -16.97360814 180.79812225 -16.98425293 176.29699707 C-16.98722405 175.59629618 -16.99019517 174.8955953 -16.99325633 174.17366105 C-17.00194476 171.82001107 -17.0034517 169.46641195 -17.00494385 167.11274719 C-17.00957192 165.42747895 -17.01459656 163.74221177 -17.01998901 162.0569458 C-17.03311604 157.47422251 -17.03955856 152.89151387 -17.04399967 148.30877471 C-17.0469299 145.44613621 -17.05103461 142.58350173 -17.05550385 139.72086525 C-17.06917955 130.76568914 -17.07884586 121.8105222 -17.08270574 112.85533637 C-17.08718687 102.51536618 -17.10473705 92.17552816 -17.13370633 81.83559817 C-17.15531738 73.84484911 -17.16540971 65.85413725 -17.16674685 57.86335927 C-17.16779529 53.09003929 -17.17371136 48.31684354 -17.19156647 43.54355431 C-17.20803717 39.05296518 -17.21020754 34.5625938 -17.20142746 30.07198524 C-17.20065655 28.42485089 -17.20500694 26.77770488 -17.21488571 25.13059998 C-17.22759359 22.87957271 -17.22173528 20.62931799 -17.21130371 18.3782959 C-17.21277027 17.11933597 -17.21423683 15.86037603 -17.21574783 14.5632658 C-16.66255556 9.48241001 -15.06473066 6.24897653 -11.28131104 2.83467102 C-7.23749284 0.03510458 -4.93837732 0.0164763 0 0 Z M14.15618896 30.14717102 C14.15618896 74.36717102 14.15618896 118.58717102 14.15618896 164.14717102 C58.04618896 164.14717102 101.93618896 164.14717102 147.15618896 164.14717102 C147.15618896 119.92717102 147.15618896 75.70717102 147.15618896 30.14717102 C103.26618896 30.14717102 59.37618896 30.14717102 14.15618896 30.14717102 Z " fill="#000000" transform="translate(43.84381103515625,-0.1471710205078125)"/>
<path d="M0 0 C4.83858548 2.32968931 7.67031069 5.16141452 10 10 C11.09913641 16.78548501 9.85346794 21.33030734 6 27 C3.74161868 29.66529468 1.30094815 32.12029675 -1.1796875 34.578125 C-1.87007111 35.27137878 -2.56045471 35.96463257 -3.27175903 36.67889404 C-4.72550299 38.13466966 -6.18300303 39.58670313 -7.64404297 41.03515625 C-9.871726 43.24674965 -12.08291915 45.47392589 -14.29296875 47.703125 C-15.7125806 49.12075473 -17.13312261 50.53745374 -18.5546875 51.953125 C-19.21113251 52.6156427 -19.86757751 53.2781604 -20.54391479 53.96075439 C-25.37035498 58.71443652 -29.91752949 62.42614989 -37 62.4375 C-37.804375 62.45683594 -38.60875 62.47617188 -39.4375 62.49609375 C-45.0526496 61.40901448 -49.17808978 57.07692242 -53.109375 53.15625 C-54.02847656 52.23972656 -54.94757813 51.32320312 -55.89453125 50.37890625 C-56.59763428 49.66951904 -56.59763428 49.66951904 -57.31494141 48.94580078 C-58.75334822 47.49662672 -60.20219574 46.05850827 -61.65234375 44.62109375 C-62.56628906 43.70457031 -63.48023438 42.78804687 -64.421875 41.84375 C-65.25299805 41.01037109 -66.08412109 40.17699219 -66.94042969 39.31835938 C-70.90715412 34.85320821 -71.45960039 31.37881469 -71.3046875 25.53515625 C-70.73236574 20.77314573 -69.05900139 17.64150802 -65.3046875 14.6484375 C-60.76692425 11.94782536 -56.65920427 11.42324822 -51.46484375 12.18359375 C-47.04408681 13.64783812 -44.14272101 16.67582859 -41 20 C-40.00113314 21.00113186 -39.00153022 22.00153256 -38 23 C-34.58546358 21.53382542 -32.44539254 19.64426329 -29.8828125 16.97265625 C-29.11066406 16.18052734 -28.33851563 15.38839844 -27.54296875 14.57226562 C-25.93670084 12.90501663 -24.33251661 11.23575754 -22.73046875 9.56445312 C-15.7474113 2.41291925 -10.27016387 -1.48867196 0 0 Z " fill="#000000" transform="translate(391,62)"/>
</svg>
