<svg width="239" height="40" viewBox="0 0 239 40" fill="none" xmlns="http://www.w3.org/2000/svg">
<g clip-path="url(#clip0_14_20)">
<path d="M89.5184 15.6197L89.5169 30.4764H84.0996L84.1011 15.6197H78.6219L78.6224 10.8897H94.9826L94.9821 15.6197H89.5184Z" fill="white"/>
<path d="M107.642 24.5682H99.0364C99.2065 26.1965 100.151 26.9099 101.528 26.9099C102.813 26.9099 103.881 26.6308 105.32 25.8709L107.239 29.0965C105.428 30.1666 103.555 30.7714 101.265 30.7714C96.8534 30.7714 94.4237 27.6388 94.4242 23.1259C94.4247 18.0548 97.2729 15.4649 101.127 15.4649C105.151 15.4649 107.658 18.1168 107.658 23.5757C107.658 24.0099 107.658 24.3201 107.642 24.5682ZM100.987 19.2024C99.8418 19.2024 99.2072 19.9933 99.0368 21.4356H103.231C102.968 19.9468 102.473 19.2024 100.987 19.2024Z" fill="white"/>
<path d="M116.99 30.7866C112.687 30.7866 110.118 28.0416 110.119 23.0945C110.119 18.5817 112.41 15.4801 117.1 15.4801C119.871 15.4801 121.449 16.7673 122.734 18.8298L119.266 21.4662C118.57 20.179 118.09 19.5587 117.007 19.5587C115.722 19.5587 115.072 20.8459 115.072 23.1721C115.072 25.4983 115.768 26.6924 117.145 26.6924C118.09 26.6924 118.771 26.1651 119.684 24.7849L122.872 27.2817C121.169 29.794 119.591 30.7866 116.99 30.7866Z" fill="white"/>
<path d="M134.124 30.4766L134.125 22.1332C134.125 20.2257 133.491 19.7295 132.454 19.7295C131.386 19.7295 130.751 20.2257 130.751 22.0867L130.75 30.4766H125.72L125.722 12.084L130.752 10.0679L130.752 16.7674C131.68 16.0696 132.702 15.4803 134.435 15.4803C137.655 15.4803 139.187 17.6359 139.187 21.4974L139.186 30.4766H134.124Z" fill="white"/>
<path d="M151.212 30.7868C145.408 30.7868 142.297 26.4755 142.298 20.691C142.298 14.3947 145.983 10.5952 151.23 10.5952C156.028 10.5952 157.931 12.6733 159.277 16.3643L154.371 18.2717C153.674 16.4573 153.009 15.3097 151.214 15.3097C148.954 15.3097 147.978 17.5739 147.978 20.6755C147.978 23.6686 148.922 26.0413 151.274 26.0413C152.977 26.0413 153.705 25.1108 154.757 23.2654L159.338 25.7001C158.038 28.29 155.855 30.7868 151.212 30.7868Z" fill="white"/>
<path d="M171.706 21.3269C171.071 20.6291 170.344 20.1018 169.369 20.1018C168.146 20.1018 167.388 20.6911 167.387 22.4745L167.386 30.4767H162.356L162.358 15.7906H167.388L167.388 16.8606C168.255 16.0232 169.23 15.4959 170.515 15.4959C171.583 15.4959 172.295 15.744 172.883 16.1162L171.706 21.3269Z" fill="white"/>
<path d="M183.654 30.4766L183.654 29.4996C182.756 30.1975 181.704 30.7868 180.001 30.7868C176.782 30.7868 175.249 28.6312 175.25 24.7697L175.251 15.7905H180.312L180.311 24.1338C180.311 26.0413 180.946 26.5376 181.983 26.5376C183.02 26.5376 183.654 26.0413 183.654 24.1803L183.655 15.7905H188.717L188.715 30.4766H183.654Z" fill="white"/>
<path d="M200.741 30.4764L200.742 22.1331C200.743 20.2256 200.108 19.7293 199.071 19.7293C198.003 19.7293 197.368 20.2256 197.368 22.0865L197.367 30.4764H192.337L192.338 15.7902H197.369L197.369 16.7673C198.297 16.0694 199.319 15.4801 201.053 15.4801C204.272 15.4801 205.804 17.6357 205.804 21.4972L205.803 30.4764H200.741Z" fill="white"/>
<path d="M215.6 30.7866C211.297 30.7866 208.728 28.0416 208.729 23.0945C208.729 18.5817 211.02 15.4801 215.71 15.4801C218.481 15.4801 220.059 16.7673 221.344 18.8298L217.877 21.4662C217.18 20.179 216.7 19.5587 215.617 19.5587C214.332 19.5587 213.682 20.8459 213.682 23.1721C213.682 25.4983 214.378 26.6924 215.756 26.6924C216.7 26.6924 217.381 26.1651 218.294 24.7849L221.482 27.2817C219.779 29.794 218.201 30.7866 215.6 30.7866Z" fill="white"/>
<path d="M232.734 30.4766L232.735 22.1332C232.735 20.2257 232.101 19.7295 231.064 19.7295C229.996 19.7295 229.361 20.2257 229.361 22.0867L229.36 30.4766H224.33L224.332 12.084L229.362 10.0679L229.362 16.7674C230.29 16.0696 231.312 15.4803 233.045 15.4803C236.265 15.4803 237.797 17.6359 237.797 21.4974L237.796 30.4766H232.734Z" fill="white"/>
<path d="M0.211945 2.5L0.210783 13.6968H11.3859L11.3835 36.075H22.5431L22.5455 13.6968H33.7205L33.7217 2.5H0.211945Z" fill="white"/>
<path d="M44.879 24.8783L44.8802 13.6969L33.7205 13.6968L33.7182 36.0751H67.2125L67.2137 24.8783H44.879Z" fill="white"/>
<path d="M67.216 2.5H44.8813L44.8802 13.6969L67.2149 13.6968L67.216 2.5Z" fill="white"/>
</g>
<defs>
<clipPath id="clip0_14_20">
<rect width="238" height="40" fill="white" transform="matrix(1 0 -0.000103703 1 0.212189 0)"/>
</clipPath>
</defs>
</svg>
