<svg width="274" height="41" viewBox="0 0 274 41" fill="none" xmlns="http://www.w3.org/2000/svg">
<g clip-path="url(#clip0_14_18)">
<path fill-rule="evenodd" clip-rule="evenodd" d="M5.15393 14.7082C5.69527 13.2416 6.43953 12.0908 7.3867 11.2447C7.51073 11.1883 7.64603 11.1657 7.78133 11.1432C7.91663 11.1319 8.2436 11.1206 8.77352 11.1206C9.06667 11.1206 9.31471 11.1432 9.5402 11.177C9.7657 11.2222 9.99118 11.3011 10.2279 11.4139C10.4647 11.538 10.7466 11.696 11.0622 11.9103L7.03678 15.1143L7.98379 15.8702L7.98268 26.5427C6.95672 26.0463 6.09992 25.2453 5.53628 24.2525C4.74718 22.8874 4.35276 21.0485 4.35299 18.7583C4.34185 17.5173 4.61258 16.1635 5.15393 14.7082ZM4.78228 10.6129C5.01905 10.6129 5.32347 10.6581 5.69553 10.737C6.06759 10.816 6.40583 10.895 6.72152 10.974C4.51155 11.9555 2.7976 13.5687 1.59096 15.8364C0.542194 17.8332 0.000771252 20.0557 0.0118109 22.3233C0.0115103 25.2227 1.01471 27.7047 3.0327 29.7692C5.05068 31.8338 7.50848 32.8717 10.3948 32.8717C13.1797 32.8717 15.5476 31.7999 17.4645 29.6677C19.3814 27.5355 20.3513 25.0196 20.3516 22.1203C20.0923 22.7295 19.7878 23.2371 19.4608 23.6433C19.0435 24.1397 18.57 24.6022 18.0625 25.0084C17.6679 25.3468 17.3071 25.6063 16.9914 25.7755C16.6756 25.9447 16.2697 26.1365 15.7623 26.3509L15.7638 12.1134C16.3952 11.8539 16.9026 11.5832 17.286 11.3011C17.6694 11.0304 18.0866 10.6242 18.5376 10.094C19.6991 8.80788 20.3419 7.36382 20.4774 5.78439C19.6317 6.33719 18.8762 6.74333 18.1997 7.01409C17.5232 7.27357 16.7678 7.45407 15.9334 7.53305C15.7981 7.53305 15.6177 7.54433 15.3809 7.56689C14.4564 7.56689 13.0809 7.20588 11.2545 6.48385C9.42802 5.76182 7.98488 5.40081 6.92504 5.40081C4.8392 5.40081 3.17042 6.38231 1.90744 8.32276C0.779772 10.0601 0.204541 12.1247 0.204292 14.5277C0.362215 13.7944 0.745632 13.0949 1.35454 12.4293C1.80559 11.9329 2.32427 11.5042 2.89933 11.1657C3.46311 10.8047 4.09452 10.6129 4.78228 10.6129ZM24.0149 32.6686L27.4541 28.8329L25.718 27.0165L25.719 16.7389L26.7113 16.0733L29.4734 18.1717L29.472 31.7322C29.4719 32.4994 29.4267 33.1537 29.3365 33.6953C29.2575 34.2029 29.0432 34.688 28.7275 35.0942L27.7577 36.3013C27.318 36.8428 26.7767 37.2716 26.1228 37.5874C27.4419 37.4521 28.5243 37.1587 29.3587 36.6962C30.2044 36.2336 31.0726 35.5003 31.9634 34.5075C32.6175 33.7629 33.1136 33.0296 33.4407 32.2963C33.779 31.5405 33.9933 30.7395 34.0949 29.9272L34.0964 14.7308L32.9126 14.8097L29.2034 12.3165L26.5198 14.5277L25.6516 14.0539L25.6524 6.54026L24.8634 4.83673L21.3453 8.27764L21.3432 27.7611L20.272 29.0246L24.0149 32.6686ZM35.7862 28.359L42.1448 32.3866L48.1888 26.0237L44.9076 28.359L40.8828 25.4709L40.883 22.7859L48.077 17.4045L43.5 11.2334L36.1934 16.3328L36.1922 27.4791L35.7862 28.359ZM56.9286 8.48071L56.9279 15.8702C56.3979 15.9266 55.9695 16.0169 55.6425 16.1522C55.3155 16.2876 54.966 16.5133 54.5939 16.8292C53.534 17.6527 53.0152 18.7019 53.0151 19.988C53.0037 20.3942 53.0601 20.789 53.1728 21.1726C53.5449 20.8567 53.9057 20.6424 54.2552 20.5408C54.616 20.4393 55.0558 20.3829 55.5857 20.3829C55.845 20.3829 56.0592 20.4167 56.2171 20.4618C56.3749 20.5183 56.6117 20.6198 56.9273 20.7777L56.9266 28.0431L62.383 33.5373L67.4009 28.438L73.4437 33.5373L82.2502 24.9971L82.2517 10.376L76.7951 6.19053L72.7696 9.82323L67.2792 6.19053L62.3855 10.2971L62.3857 7.89406C62.3858 7.10434 61.8221 6.21309 60.6835 5.20902C60.3453 4.97211 60.0183 4.72391 59.7139 4.47571C59.4095 4.22751 59.2292 3.8665 59.1841 3.40395C59.1391 3.03166 59.1166 2.65936 59.1053 2.27578C59.1054 1.38453 59.4099 0.662504 60.0188 0.143547C59.7933 0.0984202 59.5678 0.0758569 59.3423 0.0645752C58.1585 0.0645752 57.1098 0.560969 56.2078 1.54247C55.2944 2.53526 54.8433 3.62959 54.8432 4.84801C54.8431 5.02851 54.8657 5.28799 54.922 5.60388C55.1474 6.88999 55.8125 7.84893 56.9286 8.48071ZM83.3097 28.5621L88.2026 32.003L91.7545 28.6411L95.9823 31.6082L99.6132 27.6934H98.3504L96.7383 26.0237L96.7395 14.4487L95.8713 14.6067L91.7676 11.1657L83.9874 16.5358L83.9862 27.8739L83.3097 28.5621ZM106.876 11.9329C106.38 11.696 105.906 11.3914 105.478 11.0416L99.0394 15.5882L99.0386 23.2597L99.6361 23.7335H103.47L98.4965 32.3866C99.2632 31.7322 99.8496 31.2923 100.278 31.0779C100.876 30.7846 101.541 30.6379 102.217 30.6379C103.063 30.6379 103.739 30.7395 104.269 30.9312C104.799 31.123 105.34 31.4728 105.893 31.9804L112.207 27.0052L112.208 19.2209L111.735 18.747H107.506L107.507 18.3522L111.262 11.7524C110.867 11.9893 110.551 12.1247 110.315 12.1698C109.931 12.2149 109.548 12.2375 109.165 12.2262H108.33C107.823 12.2375 107.327 12.136 106.876 11.9329ZM116.886 32.1158L120.359 28.2462L118.623 26.4299L118.624 16.1522L119.571 15.4753L122.378 17.6076L122.377 31.123C122.388 31.7774 122.343 32.4317 122.241 33.086C122.151 33.5937 121.937 34.0676 121.587 34.485C121.373 34.7445 121.091 35.128 120.719 35.6357C120.245 36.1885 119.67 36.6398 119.016 36.9782C120.223 36.8767 121.305 36.5834 122.241 36.0983C123.177 35.6131 124.056 34.8911 124.868 33.9435C125.477 33.2327 125.951 32.4881 126.289 31.7097C126.627 30.9312 126.853 30.1302 126.966 29.318L126.967 14.1328L125.817 14.2569L122.063 11.7637L119.379 13.941L118.511 13.4672L118.512 5.98746L117.757 4.25008L114.205 7.69099L114.203 27.2196L113.132 28.438L116.886 32.1158ZM135.886 8.76275L132.335 5.87464L129.448 9.03351L132.447 11.7637L135.886 8.76275ZM130.316 17.6866L130.314 28.438L129.559 29.5887H130.901L133.978 32.1948L137.215 29.2277L141.363 32.5897L144.994 28.5621L143.844 27.1068L143.845 17.0322L144.793 16.5584L146.889 18.8486L146.888 28.72L150.564 31.924L154.116 27.8965H152.458L151.511 26.3509L151.513 15.5994L151.986 14.6067L151.039 14.8097L147.409 11.9216L143.857 15.5994L139.708 12.3165L136.269 16.1522H137.611L138.76 17.4948L138.759 27.3662L136.471 28.156L135.005 27.0052L135.006 15.9379L135.48 15.261L131.376 12.2149L128.016 15.7687L129.166 16.1297L130.316 17.6866ZM201.335 28.0883L200.196 26.6216L200.197 16.5471L201.144 16.0733L203.241 18.3635L203.24 28.2801L206.915 31.4389L210.467 27.4114H208.81L207.863 25.8658L207.864 15.1143L208.338 14.1667L207.391 14.3246L203.761 11.4365L200.209 15.1143L196.06 11.8314L192.621 15.6671H193.962L195.112 17.0097L195.111 26.9263L193.69 28.8216L198.076 31.7097L201.335 28.0883ZM154.882 28.1672C155.412 28.1672 155.886 28.2349 156.326 28.3703C156.765 28.5057 157.182 28.7313 157.611 29.0585C158.028 29.3857 158.344 29.7015 158.535 30.0061C158.727 30.3108 158.896 30.7282 159.031 31.2471L156.979 33.8983L154.803 36.8203C155.355 36.5044 155.829 36.3126 156.223 36.2449C156.618 36.1772 157.193 36.1434 157.96 36.1434C158.85 36.2224 159.617 36.4367 160.248 36.7752C160.88 37.1136 161.455 37.6326 161.984 38.3207C163.247 37.8469 164.713 36.7864 166.393 35.1619C168.073 33.526 168.908 32.1835 168.908 31.1343C168.908 30.9538 168.716 30.3784 168.333 29.4421C167.95 28.4831 167.758 27.4678 167.758 26.4299L167.76 14.1328L162.269 10.6919L155.357 15.5882L155.356 27.2873L154.882 28.1672ZM168.515 14.6518H170.804L170.802 28.3703L170.25 29.4421H171.592L174.478 31.6533L178.188 27.4226H176.564L175.493 26.2719L175.494 14.9225L177.828 12.0344H175.494L175.495 4.48699L170.793 8.87557L170.793 11.8765L168.515 14.6518ZM178.503 28.1672L183.396 31.642L191.932 25.674L191.933 14.0539L191.065 14.2569L186.95 10.7822L179.17 16.1522L179.168 27.5016L178.503 28.1672ZM218.599 8.55968L218.598 12.2375C217.91 12.2375 217.335 12.3052 216.862 12.4519C216.388 12.5985 215.937 12.8806 215.497 13.298C215.058 13.7154 214.81 14.2118 214.731 14.7646C214.652 15.3174 214.606 16.0394 214.606 16.942C214.606 17.3143 214.595 17.5625 214.561 17.6978C215.136 16.7727 215.948 16.3892 216.974 16.5471C217.662 16.6486 218.203 16.942 218.598 17.4158L218.597 23.5417C217.39 24.1735 216.331 25.0084 215.44 26.035C214.436 27.2196 213.76 28.438 213.421 29.7128C213.872 29.3631 214.346 29.0472 214.842 28.7877C215.237 28.5847 215.789 28.3929 216.499 28.1785C216.759 28.0995 217.063 28.0093 217.413 27.919C217.751 27.8288 218.146 27.7837 218.597 27.7837L218.595 39.5956L223.771 35.3649L225.507 36.6285L225.508 29.9046L227.718 30.6605L235.182 25.4822L235.184 8.08585L230.404 4.25008L225.51 8.35661L225.51 6.19053L224.563 5.40081L224.563 8.87557L223.774 9.42837L223.774 5.79567L219.749 2.70449L214.968 7.40895C215.363 7.17203 215.769 7.04793 216.186 7.04793C216.524 7.04793 216.862 7.10434 217.178 7.20588C217.888 7.47664 218.362 7.92791 218.599 8.55968ZM235.858 28.5621L240.751 32.003L249.321 26.035L249.322 14.4487L248.454 14.6067L244.305 11.1657L236.525 16.5358L236.524 27.8739L235.858 28.5621ZM258.534 11.7637C258.026 11.5155 257.53 11.2222 257.068 10.895L250.663 15.3964L250.663 23.0679L251.215 23.5417H255.049L250.075 32.1948C250.628 31.721 251.09 31.3712 251.462 31.123C252.15 30.6718 252.939 30.4461 253.83 30.4461C254.653 30.4461 255.318 30.5477 255.848 30.7395C256.378 30.9425 256.919 31.281 257.472 31.7887L263.797 26.8134L263.798 19.0291L263.325 18.5552H259.097L259.097 18.1604L262.852 11.5606C262.457 11.7975 262.142 11.9329 261.905 11.978C261.668 12.0232 261.285 12.0344 260.755 12.0344H259.932C259.391 12.0344 258.928 11.9442 258.534 11.7637ZM263.9 14.8436H266.189L266.188 28.5621L265.635 29.6339H266.977L269.818 31.8451L273.573 27.6144H271.949L270.878 26.4637L270.879 15.1256L273.168 12.2375H270.88L270.88 4.69006L266.201 9.07864L266.201 12.0796L263.9 14.8436ZM88.6779 15.2046L91.7557 17.4948L91.7547 26.7006L90.7624 27.7724L88.6655 25.956L88.6779 15.2046ZM165.153 31.4051C165.785 31.8563 166.1 32.4204 166.1 33.1086C166.1 33.4245 166.066 33.6614 166.021 33.8194C165.863 34.0563 165.739 34.2142 165.66 34.2932C165.446 34.5075 165.176 34.6429 164.871 34.688C164.533 34.7445 164.082 34.5752 163.53 34.1917C162.977 33.8081 162.143 33.6163 161.038 33.6163C160.328 33.6163 159.685 33.684 159.099 33.8194C158.524 33.9547 157.915 34.1804 157.283 34.4963L163.057 27.3775L163.057 28.2913C163.057 28.8216 163.102 29.2503 163.192 29.6C163.282 29.9385 163.485 30.2769 163.801 30.5928C164.251 30.8636 164.702 31.1456 165.153 31.4051ZM160.059 14.7308L163.058 16.942L163.057 25.8771L162.189 26.8247L160.058 24.6925L160.059 14.7308ZM40.8832 21.6464L40.8838 15.8702L43.7697 19.5029L40.8832 21.6464ZM108.555 15.1256L105.872 19.909H103.853L103.854 14.7308C104.643 15.2272 105.5 15.4866 106.424 15.4866C107.157 15.4753 107.868 15.3625 108.555 15.1256ZM183.871 14.8097L186.949 17.145L186.948 26.3509L185.967 27.4226L183.87 25.5612L183.871 14.8097ZM104.597 22.7859H107.484L107.483 27.8852C107.077 27.7385 106.66 27.6257 106.243 27.5467C105.961 27.5129 105.397 27.4903 104.529 27.4903C104.022 27.4791 103.526 27.5355 103.029 27.6483C102.612 27.7498 102.105 27.9303 101.53 28.1672L104.597 22.7859ZM223.773 12.0344L224.563 11.3575L224.56 33.9209L223.771 33.4471L223.773 12.0344ZM225.51 10.7709L227.923 9.2253L229.659 10.4888L229.657 25.3468C228.834 24.873 228.395 24.6248 228.316 24.5909L227.448 24.3089C226.805 24.151 226.151 23.993 225.508 23.8351L225.51 10.7709ZM14.4559 12.5083C14.7152 12.5083 14.9294 12.4857 15.0873 12.4293L15.0858 26.8134C14.0936 27.3098 12.9999 27.5693 11.8837 27.5693C11.2297 27.5693 10.5645 27.4903 9.9106 27.3324C9.25667 27.1744 8.73805 26.9601 8.36601 26.7006L12.8651 22.1992L12.8662 12.3165C13.0578 12.418 13.2608 12.4857 13.475 12.497C13.7005 12.5083 13.8471 12.5195 13.926 12.5195L14.4559 12.5083ZM241.238 15.2046L244.315 17.4948L244.315 26.7006L243.367 27.7724L241.237 25.956L241.238 15.2046ZM62.3741 11.4478L63.8399 10.2971L66.8838 13.377L66.8823 27.5693L65.6532 28.8329L62.3726 25.674L62.3741 11.4478ZM259.165 15.2046C259.503 15.1482 259.841 15.0579 260.146 14.9225L257.462 19.706H255.444L255.444 14.5277C256.222 15.0241 257.124 15.2836 258.048 15.2836C258.454 15.2836 258.826 15.2497 259.165 15.2046ZM256.199 22.5941H259.085L259.084 27.6934C258.679 27.5467 258.261 27.4339 257.844 27.355C257.562 27.3098 256.999 27.2985 256.119 27.2985C255.612 27.2873 255.105 27.3437 254.62 27.4565C254.124 27.5919 253.627 27.7611 253.154 27.9754L256.199 22.5941ZM72.7582 11.4478L74.1902 10.2971L77.2679 13.377L77.2665 27.5693L76.0035 28.8329L72.768 25.674L72.7582 11.4478Z" fill="white"/>
</g>
<defs>
<clipPath id="clip0_14_18">
<rect width="274" height="40" fill="white" transform="matrix(1 0 -0.000103699 1 0.00418091 0.0645752)"/>
</clipPath>
</defs>
</svg>
